<?xml version="1.0" standalone="no"?>
<!DOCTYPE svg PUBLIC "-//W3C//DTD SVG 20010904//EN"
 "http://www.w3.org/TR/2001/REC-SVG-20010904/DTD/svg10.dtd">
<svg version="1.0" xmlns="http://www.w3.org/2000/svg"
 width="640.000000pt" height="640.000000pt" viewBox="0 0 640.000000 640.000000"
 preserveAspectRatio="xMidYMid meet">
<metadata>
Created by potrace 1.14, written by Peter Selinger 2001-2017
</metadata>
<g transform="translate(0.000000,640.000000) scale(0.100000,-0.100000)"
fill="#000000" stroke="none">
<path d="M2020 4945 c0 -60 4 -57 -72 -58 -27 0 -38 -5 -39 -16 -1 -9 -2 -34
-3 -56 l-1 -40 -45 0 -45 0 -3 -1419 c-1 -932 1 -1422 8 -1426 5 -3 27 -5 48
-4 l38 1 0 -271 -1 -271 1255 -3 1255 -2 0 257 c0 142 1 266 3 275 3 14 15 17
61 15 l56 -2 3 1426 2 1426 -55 -2 c-32 -2 -58 2 -63 9 -3 6 -7 31 -7 56 0 44
0 45 -35 46 -84 4 -78 -1 -76 57 l1 52 -1142 3 -1143 2 0 -55z"/>
</g>
</svg>
